{
	"patcher" : 	{
		"fileversion" : 1,
		"appversion" : 		{
			"major" : 7,
			"minor" : 3,
			"revision" : 4,
			"architecture" : "x86",
			"modernui" : 1
		}
,
		"rect" : [ 237.0, 310.0, 784.0, 412.0 ],
		"bglocked" : 0,
		"openinpresentation" : 0,
		"default_fontsize" : 12.0,
		"default_fontface" : 0,
		"default_fontname" : "Arial",
		"gridonopen" : 1,
		"gridsize" : [ 15.0, 15.0 ],
		"gridsnaponopen" : 1,
		"objectsnaponopen" : 1,
		"statusbarvisible" : 2,
		"toolbarvisible" : 1,
		"lefttoolbarpinned" : 0,
		"toptoolbarpinned" : 0,
		"righttoolbarpinned" : 0,
		"bottomtoolbarpinned" : 0,
		"toolbars_unpinned_last_save" : 0,
		"tallnewobj" : 0,
		"boxanimatetime" : 200,
		"enablehscroll" : 1,
		"enablevscroll" : 1,
		"devicewidth" : 0.0,
		"description" : "",
		"digest" : "",
		"tags" : "",
		"style" : "",
		"subpatcher_template" : "",
		"boxes" : [ 			{
				"box" : 				{
					"id" : "obj-622",
					"linecount" : 3,
					"maxclass" : "comment",
					"numinlets" : 1,
					"numoutlets" : 0,
					"patching_rect" : [ 7.0, 123.0, 150.0, 47.0 ],
					"style" : "",
					"text" : "Arguments:\n#1: Number of routes\n#2: Ramp time (ms)"
				}

			}
, 			{
				"box" : 				{
					"id" : "obj-380",
					"maxclass" : "newobj",
					"numinlets" : 0,
					"numoutlets" : 1,
					"outlettype" : [ "" ],
					"patching_rect" : [ 7.0, 176.0, 87.0, 22.0 ],
					"style" : "",
					"text" : "receive #0js"
				}

			}
, 			{
				"box" : 				{
					"id" : "obj-379",
					"maxclass" : "newobj",
					"numinlets" : 1,
					"numoutlets" : 0,
					"patching_rect" : [ 504.0, 104.0, 74.0, 22.0 ],
					"style" : "",
					"text" : "send #0js"
				}

			}
, 			{
				"box" : 				{
					"id" : "obj-378",
					"maxclass" : "message",
					"numinlets" : 2,
					"numoutlets" : 1,
					"outlettype" : [ "" ],
					"patching_rect" : [ 504.0, 75.0, 55.0, 22.0 ],
					"style" : "",
					"text" : "route $1"
				}

			}
, 			{
				"box" : 				{
					"id" : "obj-373",
					"maxclass" : "comment",
					"numinlets" : 1,
					"numoutlets" : 0,
					"patching_rect" : [ 504.0, 5.0, 97.0, 20.0 ],
					"style" : "",
					"text" : "route destination"
				}

			}
, 			{
				"box" : 				{
					"comment" : "Route dest.",
					"id" : "obj-375",
					"index" : 3,
					"maxclass" : "inlet",
					"numinlets" : 0,
					"numoutlets" : 1,
					"outlettype" : [ "" ],
					"patching_rect" : [ 504.0, 30.0, 30.0, 30.0 ],
					"style" : "",
					"varname" : "#0inlet3"
				}

			}
, 			{
				"box" : 				{
					"id" : "obj-106",
					"maxclass" : "comment",
					"numinlets" : 1,
					"numoutlets" : 0,
					"patching_rect" : [ 625.0, 5.0, 64.5, 20.0 ],
					"style" : "",
					"text" : "ramp time"
				}

			}
, 			{
				"box" : 				{
					"id" : "obj-105",
					"maxclass" : "comment",
					"numinlets" : 1,
					"numoutlets" : 0,
					"patching_rect" : [ 377.0, 5.0, 101.0, 20.0 ],
					"style" : "",
					"text" : "signal channel 2"
				}

			}
, 			{
				"box" : 				{
					"id" : "obj-98",
					"linecount" : 6,
					"maxclass" : "comment",
					"numinlets" : 1,
					"numoutlets" : 0,
					"patching_rect" : [ 7.0, 30.0, 155.0, 87.0 ],
					"style" : "",
					"text" : "Route a stereo signal to a selected destination with output ramping.\nTo use with a mono signal, just use the odd-numbered outlets."
				}

			}
, 			{
				"box" : 				{
					"id" : "obj-28",
					"maxclass" : "newobj",
					"numinlets" : 1,
					"numoutlets" : 1,
					"outlettype" : [ "" ],
					"patching_rect" : [ 7.0, 200.0, 142.0, 22.0 ],
					"saved_object_attributes" : 					{
						"filename" : "rampgate~.js",
						"parameter_enable" : 0
					}
,
					"style" : "",
					"text" : "js rampgate~.js #0 #1 #2"
				}

			}
, 			{
				"box" : 				{
					"comment" : "Signal Ch.2",
					"id" : "obj-30",
					"index" : 2,
					"maxclass" : "inlet",
					"numinlets" : 0,
					"numoutlets" : 1,
					"outlettype" : [ "signal" ],
					"patching_rect" : [ 377.0, 30.0, 30.0, 30.0 ],
					"style" : "",
					"varname" : "#0inlet2"
				}

			}
, 			{
				"box" : 				{
					"id" : "obj-18",
					"maxclass" : "comment",
					"numinlets" : 1,
					"numoutlets" : 0,
					"patching_rect" : [ 227.0, 5.0, 101.0, 20.0 ],
					"style" : "",
					"text" : "signal channel  1"
				}

			}
, 			{
				"box" : 				{
					"comment" : "Ramp time",
					"id" : "obj-31",
					"index" : 4,
					"maxclass" : "inlet",
					"numinlets" : 0,
					"numoutlets" : 1,
					"outlettype" : [ "" ],
					"patching_rect" : [ 625.0, 30.0, 30.0, 30.0 ],
					"style" : "",
					"varname" : "#0inlet4"
				}

			}
, 			{
				"box" : 				{
					"comment" : "Signal ch.1",
					"id" : "obj-32",
					"index" : 1,
					"maxclass" : "inlet",
					"numinlets" : 0,
					"numoutlets" : 1,
					"outlettype" : [ "signal" ],
					"patching_rect" : [ 227.0, 30.0, 30.0, 30.0 ],
					"style" : "",
					"varname" : "#0inlet1"
				}

			}
, 			{
				"box" : 				{
					"fontface" : 3,
					"fontname" : "Arial",
					"fontsize" : 16.0,
					"id" : "obj-33",
					"maxclass" : "comment",
					"numinlets" : 1,
					"numoutlets" : 0,
					"patching_rect" : [ 7.0, 3.0, 150.0, 24.0 ],
					"style" : "",
					"text" : "rampgate~"
				}

			}
 ],
		"lines" : [ 			{
				"patchline" : 				{
					"destination" : [ "obj-378", 0 ],
					"source" : [ "obj-375", 0 ]
				}

			}
, 			{
				"patchline" : 				{
					"destination" : [ "obj-379", 0 ],
					"source" : [ "obj-378", 0 ]
				}

			}
, 			{
				"patchline" : 				{
					"destination" : [ "obj-28", 0 ],
					"source" : [ "obj-380", 0 ]
				}

			}
 ]
	}

}
